<svg width="302" height="207" viewBox="0 0 302 207" fill="none" xmlns="http://www.w3.org/2000/svg">
<path d="M152.012 205.04C151.488 205.49 150.838 205.84 150.063 206.09C149.288 206.315 148.488 206.428 147.663 206.428C145.664 206.428 144.114 205.89 143.014 204.815C141.915 203.741 141.365 202.203 141.365 200.204V189.294H137.991V186.332H141.365V181.983H144.964V186.332H150.663V189.294H144.964V200.054C144.964 201.129 145.226 201.953 145.751 202.528C146.301 203.103 147.076 203.391 148.076 203.391C149.176 203.391 150.113 203.078 150.888 202.453L152.012 205.04Z" fill="#36A9E1"/>
<path d="M169.936 189.669C170.561 188.519 171.486 187.644 172.71 187.044C173.935 186.444 175.422 186.144 177.172 186.144V189.631C176.972 189.606 176.697 189.594 176.347 189.594C174.397 189.594 172.86 190.181 171.735 191.356C170.636 192.506 170.086 194.155 170.086 196.305V206.203H166.487V186.332H169.936V189.669Z" fill="#36A9E1"/>
<path d="M198.93 186.144C201.679 186.144 203.779 186.819 205.229 188.169C206.703 189.519 207.441 191.531 207.441 194.205V206.203H204.029V203.578C203.429 204.503 202.567 205.215 201.442 205.715C200.342 206.19 199.03 206.428 197.505 206.428C195.281 206.428 193.494 205.89 192.144 204.815C190.819 203.741 190.157 202.328 190.157 200.579C190.157 198.829 190.794 197.429 192.069 196.38C193.344 195.305 195.368 194.768 198.143 194.768H203.841V194.055C203.841 192.506 203.391 191.318 202.492 190.494C201.592 189.669 200.267 189.256 198.517 189.256C197.343 189.256 196.193 189.456 195.068 189.856C193.943 190.231 192.994 190.743 192.219 191.393L190.719 188.694C191.744 187.869 192.969 187.244 194.393 186.819C195.818 186.369 197.33 186.144 198.93 186.144ZM198.105 203.653C199.48 203.653 200.667 203.353 201.667 202.753C202.667 202.128 203.391 201.254 203.841 200.129V197.355H198.293C195.243 197.355 193.719 198.379 193.719 200.429C193.719 201.429 194.106 202.216 194.881 202.791C195.656 203.366 196.73 203.653 198.105 203.653Z" fill="#36A9E1"/>
<path d="M231.497 181.121C229.348 181.121 228.273 182.283 228.273 184.607V186.332H234.047V189.294H228.348V206.203H224.749V189.294H221.375V186.332H224.749V184.57C224.749 182.595 225.324 181.033 226.473 179.883C227.623 178.734 229.235 178.159 231.31 178.159C232.11 178.159 232.86 178.259 233.559 178.459C234.259 178.659 234.859 178.946 235.359 179.321L234.272 182.058C233.447 181.433 232.522 181.121 231.497 181.121Z" fill="#36A9E1"/>
<path d="M254.837 181.121C252.688 181.121 251.613 182.283 251.613 184.607V186.332H257.387V189.294H251.688V206.203H248.089V189.294H244.715V186.332H248.089V184.57C248.089 182.595 248.664 181.033 249.814 179.883C250.963 178.734 252.575 178.159 254.65 178.159C255.45 178.159 256.2 178.259 256.9 178.459C257.599 178.659 258.199 178.946 258.699 179.321L257.612 182.058C256.787 181.433 255.862 181.121 254.837 181.121ZM263.798 186.332H267.397V206.203H263.798V186.332ZM265.598 182.508C264.898 182.508 264.31 182.283 263.835 181.833C263.386 181.383 263.161 180.833 263.161 180.183C263.161 179.533 263.386 178.984 263.835 178.534C264.31 178.059 264.898 177.821 265.598 177.821C266.297 177.821 266.872 178.046 267.322 178.496C267.797 178.921 268.035 179.458 268.035 180.108C268.035 180.783 267.797 181.358 267.322 181.833C266.872 182.283 266.297 182.508 265.598 182.508Z" fill="#36A9E1"/>
<path d="M293.038 206.428C291.014 206.428 289.202 205.99 287.602 205.115C286.027 204.24 284.79 203.041 283.89 201.516C282.991 199.966 282.541 198.217 282.541 196.267C282.541 194.318 282.991 192.581 283.89 191.056C284.79 189.506 286.027 188.306 287.602 187.457C289.202 186.582 291.014 186.144 293.038 186.144C294.838 186.144 296.438 186.507 297.837 187.232C299.262 187.957 300.362 189.006 301.137 190.381L298.4 192.143C297.775 191.193 297 190.481 296.075 190.006C295.15 189.531 294.126 189.294 293.001 189.294C291.701 189.294 290.526 189.581 289.477 190.156C288.452 190.731 287.64 191.556 287.04 192.631C286.465 193.68 286.177 194.893 286.177 196.267C286.177 197.667 286.465 198.904 287.04 199.979C287.64 201.029 288.452 201.841 289.477 202.416C290.526 202.991 291.701 203.278 293.001 203.278C294.126 203.278 295.15 203.041 296.075 202.566C297 202.091 297.775 201.379 298.4 200.429L301.137 202.153C300.362 203.528 299.262 204.59 297.837 205.34C296.438 206.065 294.838 206.428 293.038 206.428Z" fill="#36A9E1"/>
<path d="M167.615 145.105C170.462 145.105 172.725 145.959 174.404 147.667C176.112 149.375 176.966 151.951 176.966 155.395V168.632H168.854V156.719C168.854 155.096 168.54 153.901 167.914 153.132C167.316 152.364 166.462 151.979 165.352 151.979C164.128 151.979 163.146 152.406 162.406 153.26C161.666 154.114 161.296 155.409 161.296 157.146V168.632H153.183V156.719C153.183 153.559 152.016 151.979 149.682 151.979C148.429 151.979 147.433 152.406 146.693 153.26C145.953 154.114 145.583 155.409 145.583 157.146V168.632H137.47V145.489H145.198V147.923C146.052 146.983 147.063 146.286 148.23 145.831C149.426 145.347 150.721 145.105 152.116 145.105C153.738 145.105 155.19 145.404 156.471 146.001C157.752 146.599 158.791 147.51 159.588 148.734C160.499 147.567 161.652 146.67 163.047 146.044C164.441 145.418 165.964 145.105 167.615 145.105Z" fill="#3C3C3B"/>
<path d="M197.501 145.105C201.344 145.105 204.276 145.987 206.297 147.752C208.318 149.488 209.329 152.164 209.329 155.779V168.632H201.771V165.643C200.604 167.892 198.327 169.016 194.939 169.016C193.146 169.016 191.595 168.703 190.285 168.077C188.976 167.451 187.979 166.611 187.296 165.558C186.641 164.476 186.314 163.252 186.314 161.885C186.314 159.694 187.154 158 188.833 156.804C190.513 155.58 193.103 154.968 196.605 154.968H201.216C201.074 152.52 199.437 151.296 196.306 151.296C195.196 151.296 194.071 151.481 192.932 151.851C191.794 152.193 190.826 152.677 190.029 153.303L187.296 147.795C188.577 146.941 190.129 146.286 191.95 145.831C193.801 145.347 195.651 145.105 197.501 145.105ZM197.202 163.892C198.142 163.892 198.967 163.665 199.679 163.209C200.391 162.754 200.903 162.085 201.216 161.202V159.195H197.715C195.352 159.195 194.171 159.978 194.171 161.544C194.171 162.255 194.441 162.825 194.982 163.252C195.523 163.679 196.263 163.892 197.202 163.892Z" fill="#3C3C3B"/>
<path d="M227.729 148.264C228.555 147.211 229.622 146.428 230.932 145.916C232.269 145.375 233.792 145.105 235.5 145.105V152.406C234.76 152.321 234.148 152.278 233.664 152.278C231.928 152.278 230.561 152.748 229.565 153.687C228.597 154.627 228.113 156.064 228.113 158V168.632H220.001V145.489H227.729V148.264Z" fill="#3C3C3B"/>
<path d="M254.903 160.519L252.512 162.953V168.632H244.399V136.949H252.512V153.559L260.795 145.489H270.403L260.795 155.395L271.214 168.632H261.393L254.903 160.519Z" fill="#3C3C3B"/>
<path d="M301.835 157.103C301.835 157.16 301.792 157.829 301.707 159.11H284.883C285.225 160.306 285.88 161.231 286.848 161.885C287.844 162.512 289.082 162.825 290.562 162.825C291.672 162.825 292.626 162.668 293.423 162.355C294.249 162.042 295.074 161.53 295.9 160.818L300.17 165.259C297.921 167.764 294.633 169.016 290.306 169.016C287.602 169.016 285.225 168.504 283.175 167.479C281.126 166.454 279.532 165.031 278.393 163.209C277.283 161.387 276.728 159.323 276.728 157.018C276.728 154.74 277.269 152.705 278.35 150.912C279.461 149.09 280.984 147.667 282.919 146.642C284.855 145.617 287.033 145.105 289.452 145.105C291.758 145.105 293.85 145.589 295.729 146.556C297.608 147.496 299.088 148.876 300.17 150.698C301.28 152.492 301.835 154.627 301.835 157.103ZM289.495 150.869C288.242 150.869 287.189 151.225 286.335 151.937C285.51 152.648 284.983 153.616 284.755 154.84H294.234C294.007 153.616 293.466 152.648 292.612 151.937C291.786 151.225 290.747 150.869 289.495 150.869Z" fill="#3C3C3B"/>
<path d="M99.6701 100.57L100.111 109.902L78.5089 115.09L68.1726 102.169L36.771 106.849L39.0892 119.473L62.6452 115.329L73.8437 129.035L102.314 122.823L104.354 131.954L125.276 110.984L99.6701 100.57Z" fill="#95C11F"/>
<path d="M66.7644 97.7571C68.5271 93.4213 76.2386 74.4992 77.9725 70.2401L60.212 63.0234L44.8273 100.81C49.9332 100.092 47.8449 100.38 66.7644 97.7571Z" fill="#8D1D81"/>
<path d="M90.1672 107.404C91.9298 103.078 106.318 67.7416 108.081 63.425L90.2438 56.1797L72.4451 99.891L80.3386 109.759L90.1672 107.404Z" fill="#36A9E1"/>
<path d="M109.536 75.7434L101.088 96.4893L118.835 103.704L127.283 82.9582L109.536 75.7434Z" fill="#E6007E"/>
<path d="M107.592 149.297C138.132 136.204 152.262 100.848 139.157 70.3351C129.367 47.5559 107.171 33.917 83.8352 33.917C75.9129 33.917 67.8661 35.4867 60.1259 38.8078C29.5864 51.9011 15.4566 87.2569 28.5614 117.77C28.9541 118.688 29.3661 119.588 29.8067 120.478C33.6002 128.24 35.0946 136.826 34.2612 145.258C34.1654 146.196 34.7018 147.096 35.5832 147.45L35.6981 147.498C36.5603 147.852 37.547 147.775 38.3421 147.287C39.1372 146.799 39.6545 145.957 39.7311 145.028C40.4975 135.85 38.8115 126.537 34.6923 118.105C34.2995 117.301 33.9163 116.468 33.5619 115.645C27.795 102.217 27.6034 87.3526 33.0254 73.7903C38.4474 60.1993 48.8316 49.5562 62.2717 43.7944C69.1594 40.8465 76.4111 39.3438 83.8352 39.3438C105.763 39.3438 125.516 52.351 134.166 72.4791C139.933 85.9074 140.124 100.771 134.702 114.334C129.28 127.896 118.896 138.549 105.456 144.31C104.517 144.712 103.559 145.095 102.601 145.44C93.5967 148.723 85.7319 154.379 79.7543 161.653C79.2083 162.323 79.0071 163.213 79.2179 164.046C79.4286 164.888 80.0321 165.568 80.8272 165.903L81.0571 165.999C82.0151 166.391 83.1167 166.104 83.7681 165.3C89.1614 158.667 96.2886 153.527 104.469 150.541C105.514 150.158 106.558 149.737 107.592 149.297Z" fill="#F9B233"/>
<path d="M78.8922 180.413L29.0883 160.093C27.2586 159.347 26.3677 157.232 27.1149 155.404L28.0441 153.126C28.7913 151.298 30.9084 150.407 32.7381 151.154L82.542 171.474C84.3717 172.22 85.2626 174.335 84.5154 176.163L83.5862 178.441C82.839 180.279 80.7219 181.159 78.8922 180.413Z" fill="#3C3C3B"/>
<path d="M66.2377 190.884L29.0883 175.723C27.2586 174.977 26.3677 172.862 27.1149 171.033L28.0441 168.756C28.7913 166.927 30.9084 166.037 32.7381 166.784L69.8875 181.945C71.7172 182.691 72.6081 184.806 71.8609 186.634L70.9316 188.912C70.1844 190.75 68.0674 191.631 66.2377 190.884Z" fill="#3C3C3B"/>
<path d="M49.234 200.206L30.4486 192.54C28.6189 191.793 27.728 189.678 28.4752 187.85L29.4044 185.572C30.1516 183.744 32.2687 182.854 34.0984 183.6L52.8838 191.267C54.7135 192.013 55.6044 194.129 54.8572 195.957L53.928 198.235C53.1712 200.063 51.0637 200.953 49.234 200.206Z" fill="#3C3C3B"/>
<path d="M122.01 1.41378C119.739 5.83564 117.344 10.1905 114.825 14.4688C112.995 17.589 117.842 20.422 119.672 17.3018C122.192 13.014 124.586 8.65912 126.857 4.24683C128.514 1.0405 123.667 -1.80212 122.01 1.41378Z" fill="#F9B233"/>
<path d="M161.525 32.3188C156.697 33.697 151.965 35.3337 147.3 37.2096C143.985 38.5496 145.432 43.9764 148.794 42.6269C153.45 40.751 158.191 39.1143 163.02 37.736C166.487 36.7406 165.012 31.3234 161.525 32.3188Z" fill="#F9B233"/>
<path d="M162.646 88.2723C166.746 88.3585 170.693 88.9902 174.62 90.1483C178.098 91.1724 179.582 85.7551 176.115 84.731C171.727 83.4389 167.215 82.7498 162.646 82.6541C159.025 82.5775 159.025 88.1958 162.646 88.2723Z" fill="#F9B233"/>
<path d="M47.3755 20.9103C45.7949 17.6466 44.2142 14.3828 42.6336 11.1191C41.0626 7.8649 36.2153 10.7075 37.7864 13.9521C39.367 17.2159 40.9476 20.4796 42.5282 23.7434C44.0993 26.988 48.9465 24.1454 47.3755 20.9103Z" fill="#F9B233"/>
<path d="M14.2974 59.999C10.4273 59.6066 6.55718 59.2238 2.68706 58.8314C-0.905259 58.4677 -0.8861 64.0859 2.68706 64.4496C6.55718 64.842 10.4273 65.2249 14.2974 65.6173C17.8898 65.9714 17.8706 60.3532 14.2974 59.999Z" fill="#F9B233"/>
</svg>
